<?xml version="1.0" encoding="UTF-8" standalone="no"?>
<!DOCTYPE svg PUBLIC "-//W3C//DTD SVG 1.1//EN" "http://www.w3.org/Graphics/SVG/1.1/DTD/svg11.dtd">
<svg width="100%" height="100%" version="1.1" xmlns="http://www.w3.org/2000/svg" xmlns:xlink="http://www.w3.org/1999/xlink" xml:space="preserve" xmlns:serif="http://www.serif.com/" style="fill-rule:evenodd;clip-rule:evenodd;stroke-linejoin:round;stroke-miterlimit:1.41421;">
    <g transform="matrix(1.14851,0,0,1.14851,-6768.17,-335.228)">
        <path d="M5903.08,388.747C5907.15,376.766 5912.42,361.38 5917.64,346.299C5929.66,345.367 5940.24,345.18 5965.1,344.994C5960.42,358.979 5956.35,372.032 5954.32,379.491C5953.41,382.706 5952.63,385.807 5951.98,388.747L5903.08,388.747ZM5989.8,342.85L5989.8,388.747L5966,388.747C5966.97,383.261 5968.22,377.14 5969.78,370.354C5971.41,362.708 5973.66,353.944 5976.1,344.808C5979.72,344.822 5984.92,344.74 5989.8,342.85ZM5893.58,348.295L5904.18,347.418C5899.84,359.618 5896.38,369.685 5893.58,378.264L5893.58,348.295ZM5924.23,292.528C5917.63,309.951 5912.16,324.787 5907.64,337.371C5902.27,338.372 5897.18,339.802 5893.58,341.865L5893.58,292.528L5924.23,292.528ZM5989.8,298.621L5989.8,338.68C5985.73,338.5 5981.28,338.235 5977.94,338.118C5981.7,324.714 5985.87,310.8 5989.8,298.621ZM5983.4,292.528C5979.02,303.81 5973.04,320.849 5967.54,337.368C5957.16,336.438 5945.76,335.694 5932.92,335.694C5928.85,335.694 5924.78,335.88 5921.1,336.066L5935.7,292.528L5983.4,292.528Z" style="fill:rgb(255,140,0);"/>
    </g>
</svg>